<svg xmlns="http://www.w3.org/2000/svg" viewBox="0 0 1200 800" width="1200" height="800">
  <defs><linearGradient id="sky" x1="0" y1="0" x2="0" y2="1"><stop offset="0" stop-color="#BFD3E8"/><stop offset="1" stop-color="#EEF3F8"/></linearGradient></defs><rect width="1200" height="800" fill="url(#sky)"/>
  <g fill="#fff" opacity="0.9"><ellipse cx="240" cy="120" rx="70" ry="26"/><ellipse cx="195" cy="126" rx="45" ry="20"/><ellipse cx="260" cy="104" rx="42" ry="28"/></g><circle cx="1000" cy="130" r="81.6" fill="#F3C56B" opacity=".2"/><circle cx="1000" cy="130" r="48" fill="#F3C56B"/>
  <polygon points="80,700 600,230 1120,700" fill="#8A5E35"/>
  <defs><clipPath id="pan"><polygon points="80,700 600,230 1120,700"/></clipPath></defs>
  <g clip-path="url(#pan)">
    <rect x="0" y="200" width="600" height="520" fill="#D9E3EC"/>
    <rect x="0" y="250" width="600" height="10" fill="#B98552"/><rect x="0" y="288" width="600" height="10" fill="#B98552"/><rect x="0" y="326" width="600" height="10" fill="#B98552"/><rect x="0" y="364" width="600" height="10" fill="#B98552"/><rect x="0" y="402" width="600" height="10" fill="#B98552"/><rect x="0" y="440" width="600" height="10" fill="#B98552"/><rect x="0" y="478" width="600" height="10" fill="#B98552"/><rect x="0" y="516" width="600" height="10" fill="#B98552"/><rect x="0" y="554" width="600" height="10" fill="#B98552"/><rect x="0" y="592" width="600" height="10" fill="#B98552"/><rect x="0" y="630" width="600" height="10" fill="#B98552"/><rect x="0" y="668" width="600" height="10" fill="#B98552"/>
    <rect x="60" y="200" width="12" height="520" fill="#8A5E35" opacity=".7"/><rect x="130" y="200" width="12" height="520" fill="#8A5E35" opacity=".7"/><rect x="200" y="200" width="12" height="520" fill="#8A5E35" opacity=".7"/><rect x="270" y="200" width="12" height="520" fill="#8A5E35" opacity=".7"/><rect x="340" y="200" width="12" height="520" fill="#8A5E35" opacity=".7"/><rect x="410" y="200" width="12" height="520" fill="#8A5E35" opacity=".7"/><rect x="480" y="200" width="12" height="520" fill="#8A5E35" opacity=".7"/><rect x="550" y="200" width="12" height="520" fill="#8A5E35" opacity=".7"/>
    <rect x="600" y="200" width="600" height="520" fill="#B9562F"/><rect x="600" y="233.8" width="600" height="9.533333333333333" fill="#8E3F22" opacity=".55"/><path d="M600 200 v34.66666666666667" stroke="#8E3F22" stroke-width="2" opacity=".5"/><path d="M650 200 v34.66666666666667" stroke="#8E3F22" stroke-width="2" opacity=".5"/><path d="M700 200 v34.66666666666667" stroke="#8E3F22" stroke-width="2" opacity=".5"/><path d="M750 200 v34.66666666666667" stroke="#8E3F22" stroke-width="2" opacity=".5"/><path d="M800 200 v34.66666666666667" stroke="#8E3F22" stroke-width="2" opacity=".5"/><path d="M850 200 v34.66666666666667" stroke="#8E3F22" stroke-width="2" opacity=".5"/><path d="M900 200 v34.66666666666667" stroke="#8E3F22" stroke-width="2" opacity=".5"/><path d="M950 200 v34.66666666666667" stroke="#8E3F22" stroke-width="2" opacity=".5"/><path d="M1000 200 v34.66666666666667" stroke="#8E3F22" stroke-width="2" opacity=".5"/><path d="M1050 200 v34.66666666666667" stroke="#8E3F22" stroke-width="2" opacity=".5"/><path d="M1100 200 v34.66666666666667" stroke="#8E3F22" stroke-width="2" opacity=".5"/><path d="M1150 200 v34.66666666666667" stroke="#8E3F22" stroke-width="2" opacity=".5"/><path d="M1200 200 v34.66666666666667" stroke="#8E3F22" stroke-width="2" opacity=".5"/><rect x="600" y="277.1333333333333" width="600" height="9.533333333333333" fill="#8E3F22" opacity=".55"/><path d="M625 243.33333333333334 v34.66666666666667" stroke="#8E3F22" stroke-width="2" opacity=".5"/><path d="M675 243.33333333333334 v34.66666666666667" stroke="#8E3F22" stroke-width="2" opacity=".5"/><path d="M725 243.33333333333334 v34.66666666666667" stroke="#8E3F22" stroke-width="2" opacity=".5"/><path d="M775 243.33333333333334 v34.66666666666667" stroke="#8E3F22" stroke-width="2" opacity=".5"/><path d="M825 243.33333333333334 v34.66666666666667" stroke="#8E3F22" stroke-width="2" opacity=".5"/><path d="M875 243.33333333333334 v34.66666666666667" stroke="#8E3F22" stroke-width="2" opacity=".5"/><path d="M925 243.33333333333334 v34.66666666666667" stroke="#8E3F22" stroke-width="2" opacity=".5"/><path d="M975 243.33333333333334 v34.66666666666667" stroke="#8E3F22" stroke-width="2" opacity=".5"/><path d="M1025 243.33333333333334 v34.66666666666667" stroke="#8E3F22" stroke-width="2" opacity=".5"/><path d="M1075 243.33333333333334 v34.66666666666667" stroke="#8E3F22" stroke-width="2" opacity=".5"/><path d="M1125 243.33333333333334 v34.66666666666667" stroke="#8E3F22" stroke-width="2" opacity=".5"/><path d="M1175 243.33333333333334 v34.66666666666667" stroke="#8E3F22" stroke-width="2" opacity=".5"/><rect x="600" y="320.4666666666667" width="600" height="9.533333333333333" fill="#8E3F22" opacity=".55"/><path d="M600 286.6666666666667 v34.66666666666667" stroke="#8E3F22" stroke-width="2" opacity=".5"/><path d="M650 286.6666666666667 v34.66666666666667" stroke="#8E3F22" stroke-width="2" opacity=".5"/><path d="M700 286.6666666666667 v34.66666666666667" stroke="#8E3F22" stroke-width="2" opacity=".5"/><path d="M750 286.6666666666667 v34.66666666666667" stroke="#8E3F22" stroke-width="2" opacity=".5"/><path d="M800 286.6666666666667 v34.66666666666667" stroke="#8E3F22" stroke-width="2" opacity=".5"/><path d="M850 286.6666666666667 v34.66666666666667" stroke="#8E3F22" stroke-width="2" opacity=".5"/><path d="M900 286.6666666666667 v34.66666666666667" stroke="#8E3F22" stroke-width="2" opacity=".5"/><path d="M950 286.6666666666667 v34.66666666666667" stroke="#8E3F22" stroke-width="2" opacity=".5"/><path d="M1000 286.6666666666667 v34.66666666666667" stroke="#8E3F22" stroke-width="2" opacity=".5"/><path d="M1050 286.6666666666667 v34.66666666666667" stroke="#8E3F22" stroke-width="2" opacity=".5"/><path d="M1100 286.6666666666667 v34.66666666666667" stroke="#8E3F22" stroke-width="2" opacity=".5"/><path d="M1150 286.6666666666667 v34.66666666666667" stroke="#8E3F22" stroke-width="2" opacity=".5"/><path d="M1200 286.6666666666667 v34.66666666666667" stroke="#8E3F22" stroke-width="2" opacity=".5"/><rect x="600" y="363.8" width="600" height="9.533333333333333" fill="#8E3F22" opacity=".55"/><path d="M625 330 v34.66666666666667" stroke="#8E3F22" stroke-width="2" opacity=".5"/><path d="M675 330 v34.66666666666667" stroke="#8E3F22" stroke-width="2" opacity=".5"/><path d="M725 330 v34.66666666666667" stroke="#8E3F22" stroke-width="2" opacity=".5"/><path d="M775 330 v34.66666666666667" stroke="#8E3F22" stroke-width="2" opacity=".5"/><path d="M825 330 v34.66666666666667" stroke="#8E3F22" stroke-width="2" opacity=".5"/><path d="M875 330 v34.66666666666667" stroke="#8E3F22" stroke-width="2" opacity=".5"/><path d="M925 330 v34.66666666666667" stroke="#8E3F22" stroke-width="2" opacity=".5"/><path d="M975 330 v34.66666666666667" stroke="#8E3F22" stroke-width="2" opacity=".5"/><path d="M1025 330 v34.66666666666667" stroke="#8E3F22" stroke-width="2" opacity=".5"/><path d="M1075 330 v34.66666666666667" stroke="#8E3F22" stroke-width="2" opacity=".5"/><path d="M1125 330 v34.66666666666667" stroke="#8E3F22" stroke-width="2" opacity=".5"/><path d="M1175 330 v34.66666666666667" stroke="#8E3F22" stroke-width="2" opacity=".5"/><rect x="600" y="407.1333333333334" width="600" height="9.533333333333333" fill="#8E3F22" opacity=".55"/><path d="M600 373.33333333333337 v34.66666666666667" stroke="#8E3F22" stroke-width="2" opacity=".5"/><path d="M650 373.33333333333337 v34.66666666666667" stroke="#8E3F22" stroke-width="2" opacity=".5"/><path d="M700 373.33333333333337 v34.66666666666667" stroke="#8E3F22" stroke-width="2" opacity=".5"/><path d="M750 373.33333333333337 v34.66666666666667" stroke="#8E3F22" stroke-width="2" opacity=".5"/><path d="M800 373.33333333333337 v34.66666666666667" stroke="#8E3F22" stroke-width="2" opacity=".5"/><path d="M850 373.33333333333337 v34.66666666666667" stroke="#8E3F22" stroke-width="2" opacity=".5"/><path d="M900 373.33333333333337 v34.66666666666667" stroke="#8E3F22" stroke-width="2" opacity=".5"/><path d="M950 373.33333333333337 v34.66666666666667" stroke="#8E3F22" stroke-width="2" opacity=".5"/><path d="M1000 373.33333333333337 v34.66666666666667" stroke="#8E3F22" stroke-width="2" opacity=".5"/><path d="M1050 373.33333333333337 v34.66666666666667" stroke="#8E3F22" stroke-width="2" opacity=".5"/><path d="M1100 373.33333333333337 v34.66666666666667" stroke="#8E3F22" stroke-width="2" opacity=".5"/><path d="M1150 373.33333333333337 v34.66666666666667" stroke="#8E3F22" stroke-width="2" opacity=".5"/><path d="M1200 373.33333333333337 v34.66666666666667" stroke="#8E3F22" stroke-width="2" opacity=".5"/><rect x="600" y="450.4666666666667" width="600" height="9.533333333333333" fill="#8E3F22" opacity=".55"/><path d="M625 416.6666666666667 v34.66666666666667" stroke="#8E3F22" stroke-width="2" opacity=".5"/><path d="M675 416.6666666666667 v34.66666666666667" stroke="#8E3F22" stroke-width="2" opacity=".5"/><path d="M725 416.6666666666667 v34.66666666666667" stroke="#8E3F22" stroke-width="2" opacity=".5"/><path d="M775 416.6666666666667 v34.66666666666667" stroke="#8E3F22" stroke-width="2" opacity=".5"/><path d="M825 416.6666666666667 v34.66666666666667" stroke="#8E3F22" stroke-width="2" opacity=".5"/><path d="M875 416.6666666666667 v34.66666666666667" stroke="#8E3F22" stroke-width="2" opacity=".5"/><path d="M925 416.6666666666667 v34.66666666666667" stroke="#8E3F22" stroke-width="2" opacity=".5"/><path d="M975 416.6666666666667 v34.66666666666667" stroke="#8E3F22" stroke-width="2" opacity=".5"/><path d="M1025 416.6666666666667 v34.66666666666667" stroke="#8E3F22" stroke-width="2" opacity=".5"/><path d="M1075 416.6666666666667 v34.66666666666667" stroke="#8E3F22" stroke-width="2" opacity=".5"/><path d="M1125 416.6666666666667 v34.66666666666667" stroke="#8E3F22" stroke-width="2" opacity=".5"/><path d="M1175 416.6666666666667 v34.66666666666667" stroke="#8E3F22" stroke-width="2" opacity=".5"/><rect x="600" y="493.8" width="600" height="9.533333333333333" fill="#8E3F22" opacity=".55"/><path d="M600 460 v34.66666666666667" stroke="#8E3F22" stroke-width="2" opacity=".5"/><path d="M650 460 v34.66666666666667" stroke="#8E3F22" stroke-width="2" opacity=".5"/><path d="M700 460 v34.66666666666667" stroke="#8E3F22" stroke-width="2" opacity=".5"/><path d="M750 460 v34.66666666666667" stroke="#8E3F22" stroke-width="2" opacity=".5"/><path d="M800 460 v34.66666666666667" stroke="#8E3F22" stroke-width="2" opacity=".5"/><path d="M850 460 v34.66666666666667" stroke="#8E3F22" stroke-width="2" opacity=".5"/><path d="M900 460 v34.66666666666667" stroke="#8E3F22" stroke-width="2" opacity=".5"/><path d="M950 460 v34.66666666666667" stroke="#8E3F22" stroke-width="2" opacity=".5"/><path d="M1000 460 v34.66666666666667" stroke="#8E3F22" stroke-width="2" opacity=".5"/><path d="M1050 460 v34.66666666666667" stroke="#8E3F22" stroke-width="2" opacity=".5"/><path d="M1100 460 v34.66666666666667" stroke="#8E3F22" stroke-width="2" opacity=".5"/><path d="M1150 460 v34.66666666666667" stroke="#8E3F22" stroke-width="2" opacity=".5"/><path d="M1200 460 v34.66666666666667" stroke="#8E3F22" stroke-width="2" opacity=".5"/><rect x="600" y="537.1333333333333" width="600" height="9.533333333333333" fill="#8E3F22" opacity=".55"/><path d="M625 503.33333333333337 v34.66666666666667" stroke="#8E3F22" stroke-width="2" opacity=".5"/><path d="M675 503.33333333333337 v34.66666666666667" stroke="#8E3F22" stroke-width="2" opacity=".5"/><path d="M725 503.33333333333337 v34.66666666666667" stroke="#8E3F22" stroke-width="2" opacity=".5"/><path d="M775 503.33333333333337 v34.66666666666667" stroke="#8E3F22" stroke-width="2" opacity=".5"/><path d="M825 503.33333333333337 v34.66666666666667" stroke="#8E3F22" stroke-width="2" opacity=".5"/><path d="M875 503.33333333333337 v34.66666666666667" stroke="#8E3F22" stroke-width="2" opacity=".5"/><path d="M925 503.33333333333337 v34.66666666666667" stroke="#8E3F22" stroke-width="2" opacity=".5"/><path d="M975 503.33333333333337 v34.66666666666667" stroke="#8E3F22" stroke-width="2" opacity=".5"/><path d="M1025 503.33333333333337 v34.66666666666667" stroke="#8E3F22" stroke-width="2" opacity=".5"/><path d="M1075 503.33333333333337 v34.66666666666667" stroke="#8E3F22" stroke-width="2" opacity=".5"/><path d="M1125 503.33333333333337 v34.66666666666667" stroke="#8E3F22" stroke-width="2" opacity=".5"/><path d="M1175 503.33333333333337 v34.66666666666667" stroke="#8E3F22" stroke-width="2" opacity=".5"/><rect x="600" y="580.4666666666667" width="600" height="9.533333333333333" fill="#8E3F22" opacity=".55"/><path d="M600 546.6666666666667 v34.66666666666667" stroke="#8E3F22" stroke-width="2" opacity=".5"/><path d="M650 546.6666666666667 v34.66666666666667" stroke="#8E3F22" stroke-width="2" opacity=".5"/><path d="M700 546.6666666666667 v34.66666666666667" stroke="#8E3F22" stroke-width="2" opacity=".5"/><path d="M750 546.6666666666667 v34.66666666666667" stroke="#8E3F22" stroke-width="2" opacity=".5"/><path d="M800 546.6666666666667 v34.66666666666667" stroke="#8E3F22" stroke-width="2" opacity=".5"/><path d="M850 546.6666666666667 v34.66666666666667" stroke="#8E3F22" stroke-width="2" opacity=".5"/><path d="M900 546.6666666666667 v34.66666666666667" stroke="#8E3F22" stroke-width="2" opacity=".5"/><path d="M950 546.6666666666667 v34.66666666666667" stroke="#8E3F22" stroke-width="2" opacity=".5"/><path d="M1000 546.6666666666667 v34.66666666666667" stroke="#8E3F22" stroke-width="2" opacity=".5"/><path d="M1050 546.6666666666667 v34.66666666666667" stroke="#8E3F22" stroke-width="2" opacity=".5"/><path d="M1100 546.6666666666667 v34.66666666666667" stroke="#8E3F22" stroke-width="2" opacity=".5"/><path d="M1150 546.6666666666667 v34.66666666666667" stroke="#8E3F22" stroke-width="2" opacity=".5"/><path d="M1200 546.6666666666667 v34.66666666666667" stroke="#8E3F22" stroke-width="2" opacity=".5"/><rect x="600" y="623.8" width="600" height="9.533333333333333" fill="#8E3F22" opacity=".55"/><path d="M625 590 v34.66666666666667" stroke="#8E3F22" stroke-width="2" opacity=".5"/><path d="M675 590 v34.66666666666667" stroke="#8E3F22" stroke-width="2" opacity=".5"/><path d="M725 590 v34.66666666666667" stroke="#8E3F22" stroke-width="2" opacity=".5"/><path d="M775 590 v34.66666666666667" stroke="#8E3F22" stroke-width="2" opacity=".5"/><path d="M825 590 v34.66666666666667" stroke="#8E3F22" stroke-width="2" opacity=".5"/><path d="M875 590 v34.66666666666667" stroke="#8E3F22" stroke-width="2" opacity=".5"/><path d="M925 590 v34.66666666666667" stroke="#8E3F22" stroke-width="2" opacity=".5"/><path d="M975 590 v34.66666666666667" stroke="#8E3F22" stroke-width="2" opacity=".5"/><path d="M1025 590 v34.66666666666667" stroke="#8E3F22" stroke-width="2" opacity=".5"/><path d="M1075 590 v34.66666666666667" stroke="#8E3F22" stroke-width="2" opacity=".5"/><path d="M1125 590 v34.66666666666667" stroke="#8E3F22" stroke-width="2" opacity=".5"/><path d="M1175 590 v34.66666666666667" stroke="#8E3F22" stroke-width="2" opacity=".5"/><rect x="600" y="667.1333333333333" width="600" height="9.533333333333333" fill="#8E3F22" opacity=".55"/><path d="M600 633.3333333333334 v34.66666666666667" stroke="#8E3F22" stroke-width="2" opacity=".5"/><path d="M650 633.3333333333334 v34.66666666666667" stroke="#8E3F22" stroke-width="2" opacity=".5"/><path d="M700 633.3333333333334 v34.66666666666667" stroke="#8E3F22" stroke-width="2" opacity=".5"/><path d="M750 633.3333333333334 v34.66666666666667" stroke="#8E3F22" stroke-width="2" opacity=".5"/><path d="M800 633.3333333333334 v34.66666666666667" stroke="#8E3F22" stroke-width="2" opacity=".5"/><path d="M850 633.3333333333334 v34.66666666666667" stroke="#8E3F22" stroke-width="2" opacity=".5"/><path d="M900 633.3333333333334 v34.66666666666667" stroke="#8E3F22" stroke-width="2" opacity=".5"/><path d="M950 633.3333333333334 v34.66666666666667" stroke="#8E3F22" stroke-width="2" opacity=".5"/><path d="M1000 633.3333333333334 v34.66666666666667" stroke="#8E3F22" stroke-width="2" opacity=".5"/><path d="M1050 633.3333333333334 v34.66666666666667" stroke="#8E3F22" stroke-width="2" opacity=".5"/><path d="M1100 633.3333333333334 v34.66666666666667" stroke="#8E3F22" stroke-width="2" opacity=".5"/><path d="M1150 633.3333333333334 v34.66666666666667" stroke="#8E3F22" stroke-width="2" opacity=".5"/><path d="M1200 633.3333333333334 v34.66666666666667" stroke="#8E3F22" stroke-width="2" opacity=".5"/><rect x="600" y="710.4666666666667" width="600" height="9.533333333333333" fill="#8E3F22" opacity=".55"/><path d="M625 676.6666666666667 v34.66666666666667" stroke="#8E3F22" stroke-width="2" opacity=".5"/><path d="M675 676.6666666666667 v34.66666666666667" stroke="#8E3F22" stroke-width="2" opacity=".5"/><path d="M725 676.6666666666667 v34.66666666666667" stroke="#8E3F22" stroke-width="2" opacity=".5"/><path d="M775 676.6666666666667 v34.66666666666667" stroke="#8E3F22" stroke-width="2" opacity=".5"/><path d="M825 676.6666666666667 v34.66666666666667" stroke="#8E3F22" stroke-width="2" opacity=".5"/><path d="M875 676.6666666666667 v34.66666666666667" stroke="#8E3F22" stroke-width="2" opacity=".5"/><path d="M925 676.6666666666667 v34.66666666666667" stroke="#8E3F22" stroke-width="2" opacity=".5"/><path d="M975 676.6666666666667 v34.66666666666667" stroke="#8E3F22" stroke-width="2" opacity=".5"/><path d="M1025 676.6666666666667 v34.66666666666667" stroke="#8E3F22" stroke-width="2" opacity=".5"/><path d="M1075 676.6666666666667 v34.66666666666667" stroke="#8E3F22" stroke-width="2" opacity=".5"/><path d="M1125 676.6666666666667 v34.66666666666667" stroke="#8E3F22" stroke-width="2" opacity=".5"/><path d="M1175 676.6666666666667 v34.66666666666667" stroke="#8E3F22" stroke-width="2" opacity=".5"/>
  </g>
  <path d="M70 706 L600 222 L1130 706" fill="none" stroke="#8E3F22" stroke-width="16" stroke-linejoin="round"/>
  <rect x="40" y="700" width="1120" height="16" rx="8" fill="#8A97A4"/>
  
  <g transform="translate(430 420) scale(-2 2)">
    <rect x="-9" y="10" width="18" height="34" rx="6" fill="#C8702E"/>
    <rect x="-8" y="42" width="7" height="30" rx="3" fill="#13283F" transform="rotate(8 -4 42)"/>
    <rect x="1" y="42" width="7" height="30" rx="3" fill="#13283F" transform="rotate(-14 4 42)"/>
    <rect x="6" y="14" width="26" height="6" rx="3" fill="#9E5520" transform="rotate(30 6 14)"/>
    <circle cx="0" cy="0" r="10" fill="#E8C4A0"/>
    <path d="M-12 -2 a12 12 0 0 1 24 0 z" fill="#F2C230"/>
    <rect x="-13" y="-3" width="26" height="4" rx="2" fill="#E0AE1E"/>
  </g>
  <rect x="0" y="716" width="1200" height="84" fill="#DCD1C2"/>
</svg>