<svg xmlns="http://www.w3.org/2000/svg" viewBox="0 0 1200 800" width="1200" height="800">
  <defs><linearGradient id="sky" x1="0" y1="0" x2="0" y2="1"><stop offset="0" stop-color="#BFD3E8"/><stop offset="1" stop-color="#EEF3F8"/></linearGradient></defs><rect width="1200" height="800" fill="url(#sky)"/>
  <rect x="0" y="120" width="1200" height="600" fill="#2E5682"/><rect x="0" y="156" width="1200" height="10.153846153846153" fill="#13283F" opacity=".55"/><path d="M0 120 v36.92307692307693" stroke="#13283F" stroke-width="2" opacity=".5"/><path d="M75 120 v36.92307692307693" stroke="#13283F" stroke-width="2" opacity=".5"/><path d="M150 120 v36.92307692307693" stroke="#13283F" stroke-width="2" opacity=".5"/><path d="M225 120 v36.92307692307693" stroke="#13283F" stroke-width="2" opacity=".5"/><path d="M300 120 v36.92307692307693" stroke="#13283F" stroke-width="2" opacity=".5"/><path d="M375 120 v36.92307692307693" stroke="#13283F" stroke-width="2" opacity=".5"/><path d="M450 120 v36.92307692307693" stroke="#13283F" stroke-width="2" opacity=".5"/><path d="M525 120 v36.92307692307693" stroke="#13283F" stroke-width="2" opacity=".5"/><path d="M600 120 v36.92307692307693" stroke="#13283F" stroke-width="2" opacity=".5"/><path d="M675 120 v36.92307692307693" stroke="#13283F" stroke-width="2" opacity=".5"/><path d="M750 120 v36.92307692307693" stroke="#13283F" stroke-width="2" opacity=".5"/><path d="M825 120 v36.92307692307693" stroke="#13283F" stroke-width="2" opacity=".5"/><path d="M900 120 v36.92307692307693" stroke="#13283F" stroke-width="2" opacity=".5"/><path d="M975 120 v36.92307692307693" stroke="#13283F" stroke-width="2" opacity=".5"/><path d="M1050 120 v36.92307692307693" stroke="#13283F" stroke-width="2" opacity=".5"/><path d="M1125 120 v36.92307692307693" stroke="#13283F" stroke-width="2" opacity=".5"/><path d="M1200 120 v36.92307692307693" stroke="#13283F" stroke-width="2" opacity=".5"/><rect x="0" y="202.15384615384616" width="1200" height="10.153846153846153" fill="#13283F" opacity=".55"/><path d="M37.5 166.15384615384616 v36.92307692307693" stroke="#13283F" stroke-width="2" opacity=".5"/><path d="M112.5 166.15384615384616 v36.92307692307693" stroke="#13283F" stroke-width="2" opacity=".5"/><path d="M187.5 166.15384615384616 v36.92307692307693" stroke="#13283F" stroke-width="2" opacity=".5"/><path d="M262.5 166.15384615384616 v36.92307692307693" stroke="#13283F" stroke-width="2" opacity=".5"/><path d="M337.5 166.15384615384616 v36.92307692307693" stroke="#13283F" stroke-width="2" opacity=".5"/><path d="M412.5 166.15384615384616 v36.92307692307693" stroke="#13283F" stroke-width="2" opacity=".5"/><path d="M487.5 166.15384615384616 v36.92307692307693" stroke="#13283F" stroke-width="2" opacity=".5"/><path d="M562.5 166.15384615384616 v36.92307692307693" stroke="#13283F" stroke-width="2" opacity=".5"/><path d="M637.5 166.15384615384616 v36.92307692307693" stroke="#13283F" stroke-width="2" opacity=".5"/><path d="M712.5 166.15384615384616 v36.92307692307693" stroke="#13283F" stroke-width="2" opacity=".5"/><path d="M787.5 166.15384615384616 v36.92307692307693" stroke="#13283F" stroke-width="2" opacity=".5"/><path d="M862.5 166.15384615384616 v36.92307692307693" stroke="#13283F" stroke-width="2" opacity=".5"/><path d="M937.5 166.15384615384616 v36.92307692307693" stroke="#13283F" stroke-width="2" opacity=".5"/><path d="M1012.5 166.15384615384616 v36.92307692307693" stroke="#13283F" stroke-width="2" opacity=".5"/><path d="M1087.5 166.15384615384616 v36.92307692307693" stroke="#13283F" stroke-width="2" opacity=".5"/><path d="M1162.5 166.15384615384616 v36.92307692307693" stroke="#13283F" stroke-width="2" opacity=".5"/><rect x="0" y="248.30769230769232" width="1200" height="10.153846153846153" fill="#13283F" opacity=".55"/><path d="M0 212.30769230769232 v36.92307692307693" stroke="#13283F" stroke-width="2" opacity=".5"/><path d="M75 212.30769230769232 v36.92307692307693" stroke="#13283F" stroke-width="2" opacity=".5"/><path d="M150 212.30769230769232 v36.92307692307693" stroke="#13283F" stroke-width="2" opacity=".5"/><path d="M225 212.30769230769232 v36.92307692307693" stroke="#13283F" stroke-width="2" opacity=".5"/><path d="M300 212.30769230769232 v36.92307692307693" stroke="#13283F" stroke-width="2" opacity=".5"/><path d="M375 212.30769230769232 v36.92307692307693" stroke="#13283F" stroke-width="2" opacity=".5"/><path d="M450 212.30769230769232 v36.92307692307693" stroke="#13283F" stroke-width="2" opacity=".5"/><path d="M525 212.30769230769232 v36.92307692307693" stroke="#13283F" stroke-width="2" opacity=".5"/><path d="M600 212.30769230769232 v36.92307692307693" stroke="#13283F" stroke-width="2" opacity=".5"/><path d="M675 212.30769230769232 v36.92307692307693" stroke="#13283F" stroke-width="2" opacity=".5"/><path d="M750 212.30769230769232 v36.92307692307693" stroke="#13283F" stroke-width="2" opacity=".5"/><path d="M825 212.30769230769232 v36.92307692307693" stroke="#13283F" stroke-width="2" opacity=".5"/><path d="M900 212.30769230769232 v36.92307692307693" stroke="#13283F" stroke-width="2" opacity=".5"/><path d="M975 212.30769230769232 v36.92307692307693" stroke="#13283F" stroke-width="2" opacity=".5"/><path d="M1050 212.30769230769232 v36.92307692307693" stroke="#13283F" stroke-width="2" opacity=".5"/><path d="M1125 212.30769230769232 v36.92307692307693" stroke="#13283F" stroke-width="2" opacity=".5"/><path d="M1200 212.30769230769232 v36.92307692307693" stroke="#13283F" stroke-width="2" opacity=".5"/><rect x="0" y="294.46153846153845" width="1200" height="10.153846153846153" fill="#13283F" opacity=".55"/><path d="M37.5 258.46153846153845 v36.92307692307693" stroke="#13283F" stroke-width="2" opacity=".5"/><path d="M112.5 258.46153846153845 v36.92307692307693" stroke="#13283F" stroke-width="2" opacity=".5"/><path d="M187.5 258.46153846153845 v36.92307692307693" stroke="#13283F" stroke-width="2" opacity=".5"/><path d="M262.5 258.46153846153845 v36.92307692307693" stroke="#13283F" stroke-width="2" opacity=".5"/><path d="M337.5 258.46153846153845 v36.92307692307693" stroke="#13283F" stroke-width="2" opacity=".5"/><path d="M412.5 258.46153846153845 v36.92307692307693" stroke="#13283F" stroke-width="2" opacity=".5"/><path d="M487.5 258.46153846153845 v36.92307692307693" stroke="#13283F" stroke-width="2" opacity=".5"/><path d="M562.5 258.46153846153845 v36.92307692307693" stroke="#13283F" stroke-width="2" opacity=".5"/><path d="M637.5 258.46153846153845 v36.92307692307693" stroke="#13283F" stroke-width="2" opacity=".5"/><path d="M712.5 258.46153846153845 v36.92307692307693" stroke="#13283F" stroke-width="2" opacity=".5"/><path d="M787.5 258.46153846153845 v36.92307692307693" stroke="#13283F" stroke-width="2" opacity=".5"/><path d="M862.5 258.46153846153845 v36.92307692307693" stroke="#13283F" stroke-width="2" opacity=".5"/><path d="M937.5 258.46153846153845 v36.92307692307693" stroke="#13283F" stroke-width="2" opacity=".5"/><path d="M1012.5 258.46153846153845 v36.92307692307693" stroke="#13283F" stroke-width="2" opacity=".5"/><path d="M1087.5 258.46153846153845 v36.92307692307693" stroke="#13283F" stroke-width="2" opacity=".5"/><path d="M1162.5 258.46153846153845 v36.92307692307693" stroke="#13283F" stroke-width="2" opacity=".5"/><rect x="0" y="340.61538461538464" width="1200" height="10.153846153846153" fill="#13283F" opacity=".55"/><path d="M0 304.61538461538464 v36.92307692307693" stroke="#13283F" stroke-width="2" opacity=".5"/><path d="M75 304.61538461538464 v36.92307692307693" stroke="#13283F" stroke-width="2" opacity=".5"/><path d="M150 304.61538461538464 v36.92307692307693" stroke="#13283F" stroke-width="2" opacity=".5"/><path d="M225 304.61538461538464 v36.92307692307693" stroke="#13283F" stroke-width="2" opacity=".5"/><path d="M300 304.61538461538464 v36.92307692307693" stroke="#13283F" stroke-width="2" opacity=".5"/><path d="M375 304.61538461538464 v36.92307692307693" stroke="#13283F" stroke-width="2" opacity=".5"/><path d="M450 304.61538461538464 v36.92307692307693" stroke="#13283F" stroke-width="2" opacity=".5"/><path d="M525 304.61538461538464 v36.92307692307693" stroke="#13283F" stroke-width="2" opacity=".5"/><path d="M600 304.61538461538464 v36.92307692307693" stroke="#13283F" stroke-width="2" opacity=".5"/><path d="M675 304.61538461538464 v36.92307692307693" stroke="#13283F" stroke-width="2" opacity=".5"/><path d="M750 304.61538461538464 v36.92307692307693" stroke="#13283F" stroke-width="2" opacity=".5"/><path d="M825 304.61538461538464 v36.92307692307693" stroke="#13283F" stroke-width="2" opacity=".5"/><path d="M900 304.61538461538464 v36.92307692307693" stroke="#13283F" stroke-width="2" opacity=".5"/><path d="M975 304.61538461538464 v36.92307692307693" stroke="#13283F" stroke-width="2" opacity=".5"/><path d="M1050 304.61538461538464 v36.92307692307693" stroke="#13283F" stroke-width="2" opacity=".5"/><path d="M1125 304.61538461538464 v36.92307692307693" stroke="#13283F" stroke-width="2" opacity=".5"/><path d="M1200 304.61538461538464 v36.92307692307693" stroke="#13283F" stroke-width="2" opacity=".5"/><rect x="0" y="386.7692307692308" width="1200" height="10.153846153846153" fill="#13283F" opacity=".55"/><path d="M37.5 350.7692307692308 v36.92307692307693" stroke="#13283F" stroke-width="2" opacity=".5"/><path d="M112.5 350.7692307692308 v36.92307692307693" stroke="#13283F" stroke-width="2" opacity=".5"/><path d="M187.5 350.7692307692308 v36.92307692307693" stroke="#13283F" stroke-width="2" opacity=".5"/><path d="M262.5 350.7692307692308 v36.92307692307693" stroke="#13283F" stroke-width="2" opacity=".5"/><path d="M337.5 350.7692307692308 v36.92307692307693" stroke="#13283F" stroke-width="2" opacity=".5"/><path d="M412.5 350.7692307692308 v36.92307692307693" stroke="#13283F" stroke-width="2" opacity=".5"/><path d="M487.5 350.7692307692308 v36.92307692307693" stroke="#13283F" stroke-width="2" opacity=".5"/><path d="M562.5 350.7692307692308 v36.92307692307693" stroke="#13283F" stroke-width="2" opacity=".5"/><path d="M637.5 350.7692307692308 v36.92307692307693" stroke="#13283F" stroke-width="2" opacity=".5"/><path d="M712.5 350.7692307692308 v36.92307692307693" stroke="#13283F" stroke-width="2" opacity=".5"/><path d="M787.5 350.7692307692308 v36.92307692307693" stroke="#13283F" stroke-width="2" opacity=".5"/><path d="M862.5 350.7692307692308 v36.92307692307693" stroke="#13283F" stroke-width="2" opacity=".5"/><path d="M937.5 350.7692307692308 v36.92307692307693" stroke="#13283F" stroke-width="2" opacity=".5"/><path d="M1012.5 350.7692307692308 v36.92307692307693" stroke="#13283F" stroke-width="2" opacity=".5"/><path d="M1087.5 350.7692307692308 v36.92307692307693" stroke="#13283F" stroke-width="2" opacity=".5"/><path d="M1162.5 350.7692307692308 v36.92307692307693" stroke="#13283F" stroke-width="2" opacity=".5"/><rect x="0" y="432.9230769230769" width="1200" height="10.153846153846153" fill="#13283F" opacity=".55"/><path d="M0 396.9230769230769 v36.92307692307693" stroke="#13283F" stroke-width="2" opacity=".5"/><path d="M75 396.9230769230769 v36.92307692307693" stroke="#13283F" stroke-width="2" opacity=".5"/><path d="M150 396.9230769230769 v36.92307692307693" stroke="#13283F" stroke-width="2" opacity=".5"/><path d="M225 396.9230769230769 v36.92307692307693" stroke="#13283F" stroke-width="2" opacity=".5"/><path d="M300 396.9230769230769 v36.92307692307693" stroke="#13283F" stroke-width="2" opacity=".5"/><path d="M375 396.9230769230769 v36.92307692307693" stroke="#13283F" stroke-width="2" opacity=".5"/><path d="M450 396.9230769230769 v36.92307692307693" stroke="#13283F" stroke-width="2" opacity=".5"/><path d="M525 396.9230769230769 v36.92307692307693" stroke="#13283F" stroke-width="2" opacity=".5"/><path d="M600 396.9230769230769 v36.92307692307693" stroke="#13283F" stroke-width="2" opacity=".5"/><path d="M675 396.9230769230769 v36.92307692307693" stroke="#13283F" stroke-width="2" opacity=".5"/><path d="M750 396.9230769230769 v36.92307692307693" stroke="#13283F" stroke-width="2" opacity=".5"/><path d="M825 396.9230769230769 v36.92307692307693" stroke="#13283F" stroke-width="2" opacity=".5"/><path d="M900 396.9230769230769 v36.92307692307693" stroke="#13283F" stroke-width="2" opacity=".5"/><path d="M975 396.9230769230769 v36.92307692307693" stroke="#13283F" stroke-width="2" opacity=".5"/><path d="M1050 396.9230769230769 v36.92307692307693" stroke="#13283F" stroke-width="2" opacity=".5"/><path d="M1125 396.9230769230769 v36.92307692307693" stroke="#13283F" stroke-width="2" opacity=".5"/><path d="M1200 396.9230769230769 v36.92307692307693" stroke="#13283F" stroke-width="2" opacity=".5"/><rect x="0" y="479.0769230769231" width="1200" height="10.153846153846153" fill="#13283F" opacity=".55"/><path d="M37.5 443.0769230769231 v36.92307692307693" stroke="#13283F" stroke-width="2" opacity=".5"/><path d="M112.5 443.0769230769231 v36.92307692307693" stroke="#13283F" stroke-width="2" opacity=".5"/><path d="M187.5 443.0769230769231 v36.92307692307693" stroke="#13283F" stroke-width="2" opacity=".5"/><path d="M262.5 443.0769230769231 v36.92307692307693" stroke="#13283F" stroke-width="2" opacity=".5"/><path d="M337.5 443.0769230769231 v36.92307692307693" stroke="#13283F" stroke-width="2" opacity=".5"/><path d="M412.5 443.0769230769231 v36.92307692307693" stroke="#13283F" stroke-width="2" opacity=".5"/><path d="M487.5 443.0769230769231 v36.92307692307693" stroke="#13283F" stroke-width="2" opacity=".5"/><path d="M562.5 443.0769230769231 v36.92307692307693" stroke="#13283F" stroke-width="2" opacity=".5"/><path d="M637.5 443.0769230769231 v36.92307692307693" stroke="#13283F" stroke-width="2" opacity=".5"/><path d="M712.5 443.0769230769231 v36.92307692307693" stroke="#13283F" stroke-width="2" opacity=".5"/><path d="M787.5 443.0769230769231 v36.92307692307693" stroke="#13283F" stroke-width="2" opacity=".5"/><path d="M862.5 443.0769230769231 v36.92307692307693" stroke="#13283F" stroke-width="2" opacity=".5"/><path d="M937.5 443.0769230769231 v36.92307692307693" stroke="#13283F" stroke-width="2" opacity=".5"/><path d="M1012.5 443.0769230769231 v36.92307692307693" stroke="#13283F" stroke-width="2" opacity=".5"/><path d="M1087.5 443.0769230769231 v36.92307692307693" stroke="#13283F" stroke-width="2" opacity=".5"/><path d="M1162.5 443.0769230769231 v36.92307692307693" stroke="#13283F" stroke-width="2" opacity=".5"/><rect x="0" y="525.2307692307693" width="1200" height="10.153846153846153" fill="#13283F" opacity=".55"/><path d="M0 489.2307692307692 v36.92307692307693" stroke="#13283F" stroke-width="2" opacity=".5"/><path d="M75 489.2307692307692 v36.92307692307693" stroke="#13283F" stroke-width="2" opacity=".5"/><path d="M150 489.2307692307692 v36.92307692307693" stroke="#13283F" stroke-width="2" opacity=".5"/><path d="M225 489.2307692307692 v36.92307692307693" stroke="#13283F" stroke-width="2" opacity=".5"/><path d="M300 489.2307692307692 v36.92307692307693" stroke="#13283F" stroke-width="2" opacity=".5"/><path d="M375 489.2307692307692 v36.92307692307693" stroke="#13283F" stroke-width="2" opacity=".5"/><path d="M450 489.2307692307692 v36.92307692307693" stroke="#13283F" stroke-width="2" opacity=".5"/><path d="M525 489.2307692307692 v36.92307692307693" stroke="#13283F" stroke-width="2" opacity=".5"/><path d="M600 489.2307692307692 v36.92307692307693" stroke="#13283F" stroke-width="2" opacity=".5"/><path d="M675 489.2307692307692 v36.92307692307693" stroke="#13283F" stroke-width="2" opacity=".5"/><path d="M750 489.2307692307692 v36.92307692307693" stroke="#13283F" stroke-width="2" opacity=".5"/><path d="M825 489.2307692307692 v36.92307692307693" stroke="#13283F" stroke-width="2" opacity=".5"/><path d="M900 489.2307692307692 v36.92307692307693" stroke="#13283F" stroke-width="2" opacity=".5"/><path d="M975 489.2307692307692 v36.92307692307693" stroke="#13283F" stroke-width="2" opacity=".5"/><path d="M1050 489.2307692307692 v36.92307692307693" stroke="#13283F" stroke-width="2" opacity=".5"/><path d="M1125 489.2307692307692 v36.92307692307693" stroke="#13283F" stroke-width="2" opacity=".5"/><path d="M1200 489.2307692307692 v36.92307692307693" stroke="#13283F" stroke-width="2" opacity=".5"/><rect x="0" y="571.3846153846154" width="1200" height="10.153846153846153" fill="#13283F" opacity=".55"/><path d="M37.5 535.3846153846154 v36.92307692307693" stroke="#13283F" stroke-width="2" opacity=".5"/><path d="M112.5 535.3846153846154 v36.92307692307693" stroke="#13283F" stroke-width="2" opacity=".5"/><path d="M187.5 535.3846153846154 v36.92307692307693" stroke="#13283F" stroke-width="2" opacity=".5"/><path d="M262.5 535.3846153846154 v36.92307692307693" stroke="#13283F" stroke-width="2" opacity=".5"/><path d="M337.5 535.3846153846154 v36.92307692307693" stroke="#13283F" stroke-width="2" opacity=".5"/><path d="M412.5 535.3846153846154 v36.92307692307693" stroke="#13283F" stroke-width="2" opacity=".5"/><path d="M487.5 535.3846153846154 v36.92307692307693" stroke="#13283F" stroke-width="2" opacity=".5"/><path d="M562.5 535.3846153846154 v36.92307692307693" stroke="#13283F" stroke-width="2" opacity=".5"/><path d="M637.5 535.3846153846154 v36.92307692307693" stroke="#13283F" stroke-width="2" opacity=".5"/><path d="M712.5 535.3846153846154 v36.92307692307693" stroke="#13283F" stroke-width="2" opacity=".5"/><path d="M787.5 535.3846153846154 v36.92307692307693" stroke="#13283F" stroke-width="2" opacity=".5"/><path d="M862.5 535.3846153846154 v36.92307692307693" stroke="#13283F" stroke-width="2" opacity=".5"/><path d="M937.5 535.3846153846154 v36.92307692307693" stroke="#13283F" stroke-width="2" opacity=".5"/><path d="M1012.5 535.3846153846154 v36.92307692307693" stroke="#13283F" stroke-width="2" opacity=".5"/><path d="M1087.5 535.3846153846154 v36.92307692307693" stroke="#13283F" stroke-width="2" opacity=".5"/><path d="M1162.5 535.3846153846154 v36.92307692307693" stroke="#13283F" stroke-width="2" opacity=".5"/><rect x="0" y="617.5384615384615" width="1200" height="10.153846153846153" fill="#13283F" opacity=".55"/><path d="M0 581.5384615384615 v36.92307692307693" stroke="#13283F" stroke-width="2" opacity=".5"/><path d="M75 581.5384615384615 v36.92307692307693" stroke="#13283F" stroke-width="2" opacity=".5"/><path d="M150 581.5384615384615 v36.92307692307693" stroke="#13283F" stroke-width="2" opacity=".5"/><path d="M225 581.5384615384615 v36.92307692307693" stroke="#13283F" stroke-width="2" opacity=".5"/><path d="M300 581.5384615384615 v36.92307692307693" stroke="#13283F" stroke-width="2" opacity=".5"/><path d="M375 581.5384615384615 v36.92307692307693" stroke="#13283F" stroke-width="2" opacity=".5"/><path d="M450 581.5384615384615 v36.92307692307693" stroke="#13283F" stroke-width="2" opacity=".5"/><path d="M525 581.5384615384615 v36.92307692307693" stroke="#13283F" stroke-width="2" opacity=".5"/><path d="M600 581.5384615384615 v36.92307692307693" stroke="#13283F" stroke-width="2" opacity=".5"/><path d="M675 581.5384615384615 v36.92307692307693" stroke="#13283F" stroke-width="2" opacity=".5"/><path d="M750 581.5384615384615 v36.92307692307693" stroke="#13283F" stroke-width="2" opacity=".5"/><path d="M825 581.5384615384615 v36.92307692307693" stroke="#13283F" stroke-width="2" opacity=".5"/><path d="M900 581.5384615384615 v36.92307692307693" stroke="#13283F" stroke-width="2" opacity=".5"/><path d="M975 581.5384615384615 v36.92307692307693" stroke="#13283F" stroke-width="2" opacity=".5"/><path d="M1050 581.5384615384615 v36.92307692307693" stroke="#13283F" stroke-width="2" opacity=".5"/><path d="M1125 581.5384615384615 v36.92307692307693" stroke="#13283F" stroke-width="2" opacity=".5"/><path d="M1200 581.5384615384615 v36.92307692307693" stroke="#13283F" stroke-width="2" opacity=".5"/><rect x="0" y="663.6923076923076" width="1200" height="10.153846153846153" fill="#13283F" opacity=".55"/><path d="M37.5 627.6923076923076 v36.92307692307693" stroke="#13283F" stroke-width="2" opacity=".5"/><path d="M112.5 627.6923076923076 v36.92307692307693" stroke="#13283F" stroke-width="2" opacity=".5"/><path d="M187.5 627.6923076923076 v36.92307692307693" stroke="#13283F" stroke-width="2" opacity=".5"/><path d="M262.5 627.6923076923076 v36.92307692307693" stroke="#13283F" stroke-width="2" opacity=".5"/><path d="M337.5 627.6923076923076 v36.92307692307693" stroke="#13283F" stroke-width="2" opacity=".5"/><path d="M412.5 627.6923076923076 v36.92307692307693" stroke="#13283F" stroke-width="2" opacity=".5"/><path d="M487.5 627.6923076923076 v36.92307692307693" stroke="#13283F" stroke-width="2" opacity=".5"/><path d="M562.5 627.6923076923076 v36.92307692307693" stroke="#13283F" stroke-width="2" opacity=".5"/><path d="M637.5 627.6923076923076 v36.92307692307693" stroke="#13283F" stroke-width="2" opacity=".5"/><path d="M712.5 627.6923076923076 v36.92307692307693" stroke="#13283F" stroke-width="2" opacity=".5"/><path d="M787.5 627.6923076923076 v36.92307692307693" stroke="#13283F" stroke-width="2" opacity=".5"/><path d="M862.5 627.6923076923076 v36.92307692307693" stroke="#13283F" stroke-width="2" opacity=".5"/><path d="M937.5 627.6923076923076 v36.92307692307693" stroke="#13283F" stroke-width="2" opacity=".5"/><path d="M1012.5 627.6923076923076 v36.92307692307693" stroke="#13283F" stroke-width="2" opacity=".5"/><path d="M1087.5 627.6923076923076 v36.92307692307693" stroke="#13283F" stroke-width="2" opacity=".5"/><path d="M1162.5 627.6923076923076 v36.92307692307693" stroke="#13283F" stroke-width="2" opacity=".5"/><rect x="0" y="709.8461538461538" width="1200" height="10.153846153846153" fill="#13283F" opacity=".55"/><path d="M0 673.8461538461538 v36.92307692307693" stroke="#13283F" stroke-width="2" opacity=".5"/><path d="M75 673.8461538461538 v36.92307692307693" stroke="#13283F" stroke-width="2" opacity=".5"/><path d="M150 673.8461538461538 v36.92307692307693" stroke="#13283F" stroke-width="2" opacity=".5"/><path d="M225 673.8461538461538 v36.92307692307693" stroke="#13283F" stroke-width="2" opacity=".5"/><path d="M300 673.8461538461538 v36.92307692307693" stroke="#13283F" stroke-width="2" opacity=".5"/><path d="M375 673.8461538461538 v36.92307692307693" stroke="#13283F" stroke-width="2" opacity=".5"/><path d="M450 673.8461538461538 v36.92307692307693" stroke="#13283F" stroke-width="2" opacity=".5"/><path d="M525 673.8461538461538 v36.92307692307693" stroke="#13283F" stroke-width="2" opacity=".5"/><path d="M600 673.8461538461538 v36.92307692307693" stroke="#13283F" stroke-width="2" opacity=".5"/><path d="M675 673.8461538461538 v36.92307692307693" stroke="#13283F" stroke-width="2" opacity=".5"/><path d="M750 673.8461538461538 v36.92307692307693" stroke="#13283F" stroke-width="2" opacity=".5"/><path d="M825 673.8461538461538 v36.92307692307693" stroke="#13283F" stroke-width="2" opacity=".5"/><path d="M900 673.8461538461538 v36.92307692307693" stroke="#13283F" stroke-width="2" opacity=".5"/><path d="M975 673.8461538461538 v36.92307692307693" stroke="#13283F" stroke-width="2" opacity=".5"/><path d="M1050 673.8461538461538 v36.92307692307693" stroke="#13283F" stroke-width="2" opacity=".5"/><path d="M1125 673.8461538461538 v36.92307692307693" stroke="#13283F" stroke-width="2" opacity=".5"/><path d="M1200 673.8461538461538 v36.92307692307693" stroke="#13283F" stroke-width="2" opacity=".5"/>
  
    <rect x="246" y="266" width="248" height="308" rx="8" fill="#5E6B78"/>
    <rect x="260" y="280" width="220" height="280" rx="4" fill="#9CC3E6"/>
    <path d="M260 560 L480 280" stroke="#fff" stroke-width="10" opacity=".35"/>
    <rect x="246" y="546" width="248" height="26" fill="#8A97A4"/>
    <rect x="706" y="266" width="248" height="308" rx="8" fill="#5E6B78"/>
    <rect x="720" y="280" width="220" height="280" rx="4" fill="#9CC3E6"/>
    <path d="M720 560 L940 280" stroke="#fff" stroke-width="10" opacity=".35"/>
    <rect x="706" y="546" width="248" height="26" fill="#8A97A4"/>
  <rect x="0" y="720" width="1200" height="80" fill="#8A97A4"/>
  <rect x="0" y="716" width="1200" height="10" fill="#B9C3CD"/>
</svg>