<svg xmlns="http://www.w3.org/2000/svg" viewBox="0 0 1000 800" width="1000" height="800">
  <defs><linearGradient id="sky" x1="0" y1="0" x2="0" y2="1"><stop offset="0" stop-color="#AFC6DE"/><stop offset="1" stop-color="#EEF3F8"/></linearGradient></defs><rect width="1000" height="800" fill="url(#sky)"/>
  <g fill="#fff" opacity="0.9"><ellipse cx="200" cy="120" rx="70" ry="26"/><ellipse cx="155" cy="126" rx="45" ry="20"/><ellipse cx="220" cy="104" rx="42" ry="28"/></g><circle cx="820" cy="140" r="74.8" fill="#F3C56B" opacity=".2"/><circle cx="820" cy="140" r="44" fill="#F3C56B"/>
  <rect x="0" y="660" width="1000" height="140" fill="#8FA97A"/>
  
  <rect x="888" y="420" width="24" height="240" fill="#8A5E35"/>
  <ellipse cx="900" cy="396" rx="88" ry="48" fill="#3F5A3A"/>
  <ellipse cx="852" cy="356" rx="60" ry="40" fill="#3F5A3A"/>
  <ellipse cx="952" cy="340" rx="64" ry="44" fill="#3F5A3A"/>
  
  <rect x="569.2" y="196.32" width="55.8" height="93" fill="#E2D6C2"/><rect x="563" y="188.88" width="68.2" height="13.020000000000001" fill="#5E6B78"/>
  <rect x="160" y="360" width="620" height="300" fill="#F1EAE0"/>
  <rect x="556.8" y="360" width="223.2" height="300" fill="#DCD1C2"/>
  <defs><clipPath id="clip160660"><polygon points="116.6,360 470,174 823.4,360"/></clipPath></defs>
  <polygon points="116.6,360 470,174 823.4,360" fill="#2E5682"/>
  <g clip-path="url(#clip160660)"><line x1="116.6" y1="200.57142857142858" x2="823.4" y2="200.57142857142858" stroke="#13283F" stroke-width="3" opacity=".55"/><line x1="116.6" y1="227.14285714285714" x2="823.4" y2="227.14285714285714" stroke="#13283F" stroke-width="3" opacity=".55"/><line x1="116.6" y1="253.71428571428572" x2="823.4" y2="253.71428571428572" stroke="#13283F" stroke-width="3" opacity=".55"/><line x1="116.6" y1="280.2857142857143" x2="823.4" y2="280.2857142857143" stroke="#13283F" stroke-width="3" opacity=".55"/><line x1="116.6" y1="306.8571428571429" x2="823.4" y2="306.8571428571429" stroke="#13283F" stroke-width="3" opacity=".55"/><line x1="116.6" y1="333.42857142857144" x2="823.4" y2="333.42857142857144" stroke="#13283F" stroke-width="3" opacity=".55"/><line x1="116.6" y1="174" x2="116.6" y2="360" stroke="#13283F" stroke-width="1.5" opacity="0.35"/><line x1="158.17647058823528" y1="174" x2="158.17647058823528" y2="360" stroke="#13283F" stroke-width="1.5" opacity="0.35"/><line x1="199.75294117647059" y1="174" x2="199.75294117647059" y2="360" stroke="#13283F" stroke-width="1.5" opacity="0.35"/><line x1="241.32941176470587" y1="174" x2="241.32941176470587" y2="360" stroke="#13283F" stroke-width="1.5" opacity="0.35"/><line x1="282.90588235294115" y1="174" x2="282.90588235294115" y2="360" stroke="#13283F" stroke-width="1.5" opacity="0.35"/><line x1="324.4823529411765" y1="174" x2="324.4823529411765" y2="360" stroke="#13283F" stroke-width="1.5" opacity="0.35"/><line x1="366.0588235294117" y1="174" x2="366.0588235294117" y2="360" stroke="#13283F" stroke-width="1.5" opacity="0.35"/><line x1="407.63529411764705" y1="174" x2="407.63529411764705" y2="360" stroke="#13283F" stroke-width="1.5" opacity="0.35"/><line x1="449.2117647058823" y1="174" x2="449.2117647058823" y2="360" stroke="#13283F" stroke-width="1.5" opacity="0.35"/><line x1="490.7882352941176" y1="174" x2="490.7882352941176" y2="360" stroke="#13283F" stroke-width="1.5" opacity="0.35"/><line x1="532.364705882353" y1="174" x2="532.364705882353" y2="360" stroke="#13283F" stroke-width="1.5" opacity="0.35"/><line x1="573.9411764705882" y1="174" x2="573.9411764705882" y2="360" stroke="#13283F" stroke-width="1.5" opacity="0.35"/><line x1="615.5176470588234" y1="174" x2="615.5176470588234" y2="360" stroke="#13283F" stroke-width="1.5" opacity="0.35"/><line x1="657.0941176470589" y1="174" x2="657.0941176470589" y2="360" stroke="#13283F" stroke-width="1.5" opacity="0.35"/><line x1="698.6705882352941" y1="174" x2="698.6705882352941" y2="360" stroke="#13283F" stroke-width="1.5" opacity="0.35"/><line x1="740.2470588235294" y1="174" x2="740.2470588235294" y2="360" stroke="#13283F" stroke-width="1.5" opacity="0.35"/><line x1="781.8235294117646" y1="174" x2="781.8235294117646" y2="360" stroke="#13283F" stroke-width="1.5" opacity="0.35"/><line x1="823.4" y1="174" x2="823.4" y2="360" stroke="#13283F" stroke-width="1.5" opacity="0.35"/></g>
  <path d="M112.6 362 L470 170 L827.4 362" fill="none" stroke="#13283F" stroke-width="7" stroke-linejoin="round"/>
  <rect x="108.6" y="360" width="722.8" height="12" rx="6" fill="#8A97A4"/><rect x="819.4" y="368" width="10" height="292" fill="#8A97A4"/>
  <rect x="271.6" y="426" width="124" height="90" rx="4" fill="#6F8FB3"/><rect x="265.6" y="420" width="136" height="8" fill="#DCD1C2"/><rect x="519.5999999999999" y="426" width="124" height="90" rx="4" fill="#6F8FB3"/><rect x="513.5999999999999" y="420" width="136" height="8" fill="#DCD1C2"/>
  <rect x="420.4" y="534" width="86.80000000000001" height="126" rx="4" fill="#1E3A5F"/>
</svg>