<svg xmlns="http://www.w3.org/2000/svg" viewBox="0 0 1200 800" width="1200" height="800">
  <defs><linearGradient id="sky" x1="0" y1="0" x2="0" y2="1"><stop offset="0" stop-color="#C9D8E8"/><stop offset="1" stop-color="#F2F5F9"/></linearGradient></defs><rect width="1200" height="800" fill="url(#sky)"/>
  <polygon points="0,0 1200,0 1200,300 0,420" fill="#B9562F"/>
  <path d="M0 400 L40 -20" stroke="#8E3F22" stroke-width="4" opacity=".4"/><path d="M150 387 L190 -20" stroke="#8E3F22" stroke-width="4" opacity=".4"/><path d="M300 374 L340 -20" stroke="#8E3F22" stroke-width="4" opacity=".4"/><path d="M450 361 L490 -20" stroke="#8E3F22" stroke-width="4" opacity=".4"/><path d="M600 348 L640 -20" stroke="#8E3F22" stroke-width="4" opacity=".4"/><path d="M750 335 L790 -20" stroke="#8E3F22" stroke-width="4" opacity=".4"/><path d="M900 322 L940 -20" stroke="#8E3F22" stroke-width="4" opacity=".4"/><path d="M1050 309 L1090 -20" stroke="#8E3F22" stroke-width="4" opacity=".4"/><path d="M1200 296 L1240 -20" stroke="#8E3F22" stroke-width="4" opacity=".4"/>
  <polygon points="0,400 1200,280 1200,800 0,800" fill="#F1EAE0"/>
  <polygon points="0,400 1200,280 1200,330 0,450" fill="#DCD1C2"/>
  <path d="M-10 410 L1210 290 L1210 340 Q 1210 370 1180 372 L 20 492 Q -10 494 -10 464 Z" fill="#8A97A4"/>
  <path d="M-10 410 L1210 290 L1210 304 L-10 424 Z" fill="#B9C3CD"/>
  <rect x="180" y="452" width="10" height="34" fill="#5E6B78"/><rect x="480" y="422" width="10" height="34" fill="#5E6B78"/><rect x="780" y="392" width="10" height="34" fill="#5E6B78"/><rect x="1080" y="362" width="10" height="34" fill="#5E6B78"/>
  <rect x="860" y="420" width="64" height="380" fill="#8A97A4"/>
  <rect x="860" y="420" width="18" height="380" fill="#B9C3CD"/>
  <rect x="850" y="520" width="84" height="16" rx="4" fill="#5E6B78"/><rect x="850" y="650" width="84" height="16" rx="4" fill="#5E6B78"/><rect x="850" y="780" width="84" height="16" rx="4" fill="#5E6B78"/>
  <path d="M300 560 q 10 18 0 26 q -10 -8 0 -26 z" fill="#7FB3DB"/><path d="M340 620 q 10 18 0 26 q -10 -8 0 -26 z" fill="#7FB3DB"/><path d="M320 690 q 10 18 0 26 q -10 -8 0 -26 z" fill="#7FB3DB"/><path d="M620 540 q 10 18 0 26 q -10 -8 0 -26 z" fill="#7FB3DB"/><path d="M650 610 q 10 18 0 26 q -10 -8 0 -26 z" fill="#7FB3DB"/>
</svg>